<?xml version="1.0" standalone="no"?>
<!DOCTYPE svg PUBLIC "-//W3C//DTD SVG 20010904//EN"
 "http://www.w3.org/TR/2001/REC-SVG-20010904/DTD/svg10.dtd">
<svg version="1.0" xmlns="http://www.w3.org/2000/svg"
 width="250.000000pt" height="250.000000pt" viewBox="0 0 250.000000 250.000000"
 preserveAspectRatio="xMidYMid meet">
<metadata>
Created by potrace 1.11, written by Peter Selinger 2001-2013
</metadata>
<g transform="translate(0.000000,250.000000) scale(0.100000,-0.100000)"
fill="#000000" stroke="none">
<path d="M0 1250 l0 -1250 1250 0 1250 0 0 1250 0 1250 -1250 0 -1250 0 0
-1250z m727 539 c44 -14 101 -48 125 -75 9 -11 29 -46 44 -77 23 -52 26 -68
22 -145 -4 -109 -41 -192 -117 -268 l-51 -50 56 -75 c31 -41 59 -81 62 -89 10
-25 107 -143 150 -182 46 -42 93 -69 137 -78 24 -4 31 -12 33 -34 l4 -29 -59
5 c-33 2 -79 14 -107 27 -46 23 -156 123 -156 142 0 5 -46 70 -101 144 l-101
135 -53 0 c-28 0 -86 3 -128 6 l-77 7 0 -227 0 -226 -35 0 -35 0 2 553 3 552
120 5 c128 5 201 0 262 -21z m663 -224 l5 -240 358 0 357 0 0 243 0 243 38 -3
37 -3 3 -552 2 -553 -40 0 -40 0 0 275 0 275 -360 0 -360 0 0 -275 0 -275 -40
0 -40 0 0 556 0 555 38 -3 37 -3 5 -240z"/>
<path d="M428 1734 c-17 -5 -18 -26 -18 -259 l0 -253 108 -7 c89 -6 115 -4
148 10 97 40 174 162 174 275 -1 108 -39 168 -135 211 -39 18 -72 23 -155 25
-58 2 -113 1 -122 -2z"/>
</g>
</svg>
